<?xml version="1.0" encoding="UTF-8" standalone="no"?>
<svg
   id="Icons"
   viewBox="0 0 50 50"
   version="1.1"
   sodipodi:docname="favicon.svg"
   width="50"
   height="50"
   inkscape:version="1.3.2 (091e20ef0f, 2023-11-25)"
   xmlns:inkscape="http://www.inkscape.org/namespaces/inkscape"
   xmlns:sodipodi="http://sodipodi.sourceforge.net/DTD/sodipodi-0.dtd"
   xmlns="http://www.w3.org/2000/svg"
   xmlns:svg="http://www.w3.org/2000/svg"
   xmlns:rdf="http://www.w3.org/1999/02/22-rdf-syntax-ns#"
   xmlns:cc="http://creativecommons.org/ns#"
   xmlns:dc="http://purl.org/dc/elements/1.1/">
  <sodipodi:namedview
     id="namedview1"
     pagecolor="#ffffff"
     bordercolor="#000000"
     borderopacity="0.25"
     inkscape:showpageshadow="2"
     inkscape:pageopacity="0.0"
     inkscape:pagecheckerboard="0"
     inkscape:deskcolor="#d1d1d1"
     inkscape:zoom="11.595"
     inkscape:cx="4.829668"
     inkscape:cy="17.809401"
     inkscape:window-width="2560"
     inkscape:window-height="1311"
     inkscape:window-x="1920"
     inkscape:window-y="24"
     inkscape:window-maximized="1"
     inkscape:current-layer="Icons" />
  <defs
     id="defs1">
    <style
       id="style1">.cls-1{fill:#45413c;opacity:0.15;}.cls-2{fill:#ff6242;}.cls-3{fill:#ff866e;}.cls-4{fill:#00b8f0;}.cls-5{fill:#4acfff;}.cls-6{fill:none;stroke:#45413c;stroke-linecap:round;stroke-linejoin:round;}</style>
  </defs>
  <title
     id="title1">740-pill</title>
  <path
     id="path12"
     style="fill:#e9c2a5;fill-opacity:1;stroke:#39404f;stroke-width:0.199769;stroke-dasharray:none"
     d="m 10.845213,26.817642 0.03594,0.03594 a 7.3508178,7.9207172 45 0 0 -0.02758,0.02553 7.3508178,7.9207172 45 0 0 -0.402977,10.798469 7.3508178,7.9207172 45 0 0 10.798468,-0.402973 7.3508178,7.9207172 45 0 0 0.0245,-0.0286 l 0.03696,0.03696 8.444229,-8.444229 -10.465316,-10.465315 z"
     inkscape:label="_left" />
  <path
     id="path12-7"
     style="fill:#4580aa;fill-opacity:1;stroke:#39404f;stroke-width:0.199769;stroke-dasharray:none"
     d="m 38.19901,20.39451 -0.03594,-0.03593 a 7.3508178,7.9207172 45 0 0 0.02755,-0.02557 7.3508178,7.9207172 45 0 0 0.402976,-10.7984694 7.3508178,7.9207172 45 0 0 -10.798467,0.402974 7.3508178,7.9207172 45 0 0 -0.0245,0.02862 l -0.03696,-0.03697 -8.444232,8.4442314 10.465345,10.465344 z"
     inkscape:label="_right" />
  <metadata
     id="metadata12">
    <rdf:RDF>
      <cc:Work
         rdf:about="">
        <dc:title>740-pill</dc:title>
      </cc:Work>
    </rdf:RDF>
  </metadata>
</svg>
