<?xml version="1.0" encoding="UTF-8" standalone="no"?>
<!-- Uploaded to: SVG Repo, www.svgrepo.com, Generator: SVG Repo Mixer Tools -->

<svg
   width="800px"
   height="800px"
   viewBox="-1 0 19 19"
   version="1.1"
   id="svg1"
   sodipodi:docname="home.svg"
   inkscape:version="1.3.2 (091e20ef0f, 2023-11-25)"
   xmlns:inkscape="http://www.inkscape.org/namespaces/inkscape"
   xmlns:sodipodi="http://sodipodi.sourceforge.net/DTD/sodipodi-0.dtd"
   xmlns="http://www.w3.org/2000/svg"
   xmlns:svg="http://www.w3.org/2000/svg">
  <sodipodi:namedview
     id="namedview1"
     pagecolor="#ffffff"
     bordercolor="#000000"
     borderopacity="0.25"
     inkscape:showpageshadow="2"
     inkscape:pageopacity="0.0"
     inkscape:pagecheckerboard="0"
     inkscape:deskcolor="#d1d1d1"
     inkscape:zoom="0.695625"
     inkscape:cx="-29.469901"
     inkscape:cy="523.98922"
     inkscape:window-width="2560"
     inkscape:window-height="1311"
     inkscape:window-x="1920"
     inkscape:window-y="24"
     inkscape:window-maximized="1"
     inkscape:current-layer="Page-1" />
  <title
     id="title1">home [#1393]</title>
  <desc
     id="desc1">Created with Sketch.</desc>
  <defs
     id="defs1" />
  <g
     id="Page-1"
     stroke="none"
     stroke-width="1"
     fill="none"
     fill-rule="evenodd">
    <g
       id="Dribbble-Light-Preview"
       transform="translate(-341.000000, -720.000000)"
       fill="#000000"
       style="fill:#999999;fill-opacity:1">
      <g
         id="icons"
         transform="translate(56.000000, 160.000000)"
         style="fill:#999999;fill-opacity:1">
        <path
           d="M299.875,576.21213 C299.875,576.76413 299.399,577.00013 298.8125,577.00013 L297.75,577.00013 C297.1635,577.00013 296.6875,576.76413 296.6875,576.21213 L296.6875,575.21213 C296.6875,574.10713 295.736562,573.00013 294.5625,573.00013 L292.4375,573.00013 C291.263438,573.00013 290.3125,574.10713 290.3125,575.21213 L290.3125,576.21213 C290.3125,576.76413 289.8365,577.00013 289.25,577.00013 L288.1875,577.00013 C287.601,577.00013 287.125,576.76413 287.125,576.21213 L287.125,568.14913 C287.125,568.01613 287.181312,567.88913 287.280125,567.79513 L292.738188,562.65913 C293.153625,562.26813 293.826188,562.26813 294.240563,562.65913 L299.719875,567.81513 C299.818688,567.90913 299.875,568.03613 299.875,568.16813 L299.875,576.21213 Z M302,567.62513 C302,567.36013 301.888438,567.10713 301.690812,566.91913 L294.998125,560.58913 C294.169375,559.80613 292.823188,559.80313 291.99125,560.58313 L285.312375,566.84813 C285.112625,567.03613 285,567.29013 285,567.55613 L285,577.21213 C285,578.31713 285.950938,579.00013 287.125,579.00013 L290.3125,579.00013 C291.486562,579.00013 292.4375,578.31713 292.4375,577.21213 L292.4375,576.21213 C292.4375,575.66013 292.9135,575.21213 293.5,575.21213 C294.0865,575.21213 294.5625,575.66013 294.5625,576.21213 L294.5625,577.21213 C294.5625,578.31713 295.513438,579.00013 296.6875,579.00013 L299.875,579.00013 C301.049062,579.00013 302,578.31713 302,577.21213 L302,567.62513 Z"
           id="home-[#1393]"
           style="fill:#999999;fill-opacity:1" />
      </g>
    </g>
  </g>
</svg>
