<?xml version="1.0" encoding="UTF-8" standalone="no"?>
<!-- Uploaded to: SVG Repo, www.svgrepo.com, Generator: SVG Repo Mixer Tools -->

<svg
   width="800px"
   height="800px"
   viewBox="0 0 32 32"
   version="1.1"
   id="svg1"
   sodipodi:docname="planner.svg"
   inkscape:version="1.3.2 (091e20ef0f, 2023-11-25)"
   xmlns:inkscape="http://www.inkscape.org/namespaces/inkscape"
   xmlns:sodipodi="http://sodipodi.sourceforge.net/DTD/sodipodi-0.dtd"
   xmlns="http://www.w3.org/2000/svg"
   xmlns:svg="http://www.w3.org/2000/svg"
   xmlns:rdf="http://www.w3.org/1999/02/22-rdf-syntax-ns#"
   xmlns:cc="http://creativecommons.org/ns#"
   xmlns:dc="http://purl.org/dc/elements/1.1/"
   xmlns:sketch="http://www.bohemiancoding.com/sketch/ns">
  <sodipodi:namedview
     id="namedview1"
     pagecolor="#ffffff"
     bordercolor="#000000"
     borderopacity="0.25"
     inkscape:showpageshadow="2"
     inkscape:pageopacity="0.0"
     inkscape:pagecheckerboard="0"
     inkscape:deskcolor="#d1d1d1"
     inkscape:zoom="0.98376231"
     inkscape:cx="329.8561"
     inkscape:cy="481.31545"
     inkscape:window-width="2560"
     inkscape:window-height="1311"
     inkscape:window-x="1920"
     inkscape:window-y="24"
     inkscape:window-maximized="1"
     inkscape:current-layer="Page-1" />
  <title
     id="title1">airplane</title>
  <desc
     id="desc1">Created with Sketch Beta.</desc>
  <defs
     id="defs1" />
  <g
     id="Page-1"
     stroke="none"
     stroke-width="1"
     fill="none"
     fill-rule="evenodd"
     sketch:type="MSPage">
    <g
       id="Icon-Set"
       sketch:type="MSLayerGroup"
       transform="translate(-308.000000, -307.000000)"
       fill="#000000"
       style="fill:#999999;fill-opacity:1">
      <path
         d="M337.854,311.163 L330.402,318.642 L334.908,331.037 C335.13,331.747 334.992,332.627 334.705,332.914 C333.89,333.73 333.309,333.342 333,333 L325.795,323.266 L317.819,331.27 L319.255,336.6 C318.688,336.032 315.38,331.602 315.301,331.521 C315.248,331.469 310.896,328.225 310.427,327.753 L315.538,329.133 L323.665,321.152 L314,314 C313.723,313.752 313.358,313.02 314.104,312.271 C314.392,311.984 315.262,311.897 315.97,312.12 L328.311,316.592 L335.864,309.175 C336.392,308.647 337.425,308.701 337.888,309.164 C338.35,309.627 338.382,310.636 337.854,311.163 L337.854,311.163 Z M339.207,307.82 C337.961,306.57 335.771,306.863 334.518,308.119 L328.141,314.481 L316.313,310.061 C315.18,309.768 314.039,309.389 312.634,310.798 C311.917,311.516 310.427,313.01 312.634,315.221 L320.744,321.861 L315.467,327.127 L310.543,325.896 C309.813,325.708 309.321,325.855 308.946,326.269 C308.757,326.505 307.386,327.521 308.342,328.479 L314.067,332.933 L318.521,338.658 C319.213,339.352 319.856,338.919 320.735,338.084 C321.292,337.526 321.172,337.239 321.004,336.426 L319.892,331.536 L325.133,326.277 L331.763,334.389 C333.969,336.6 335.46,335.105 336.177,334.389 C337.583,332.979 337.205,331.837 336.912,330.702 L332.529,318.854 L338.88,312.481 C340.133,311.226 340.454,309.069 339.207,307.82 L339.207,307.82 Z"
         id="airplane"
         sketch:type="MSShapeGroup"
         style="fill:#999999;fill-opacity:1" />
    </g>
  </g>
  <metadata
     id="metadata1">
    <rdf:RDF>
      <cc:Work
         rdf:about="">
        <dc:title>airplane</dc:title>
      </cc:Work>
    </rdf:RDF>
  </metadata>
</svg>
